<?xml version="1.0" encoding="iso-8859-1"?>
<!-- Generator: Adobe Illustrator 16.0.0, SVG Export Plug-In . SVG Version: 6.00 Build 0)  -->
<!DOCTYPE svg PUBLIC "-//W3C//DTD SVG 1.1//EN" "http://www.w3.org/Graphics/SVG/1.1/DTD/svg11.dtd">
<svg version="1.1" id="Capa_1" xmlns="http://www.w3.org/2000/svg" xmlns:xlink="http://www.w3.org/1999/xlink" x="0px" y="0px"
	 width="612px" height="612px" viewBox="0 0 612 612" style="enable-background:new 0 0 612 612;" xml:space="preserve">
<g>
	<g>
		<g>
			<path d="M457.008,392.441c0-5.279,4.283-9.563,9.563-9.563c5.279,0,9.562,4.283,9.562,9.563v37.055
				c0,5.279-4.283,9.563-9.562,9.563h-0.239h-147.98c-5.278,0-9.562-4.283-9.562-9.563v-0.238v-73.852
				c0-5.279,4.283-9.562,9.562-9.562h0.239h147.96c5.279,0,9.563,4.282,9.563,9.562s-4.283,9.563-9.563,9.563H327.895v54.965
				h129.073v-27.492L457.008,392.441L457.008,392.441z"/>
			<path d="M155.012,528.328c0,5.279-4.283,9.563-9.563,9.563c-5.28,0-9.563-4.283-9.563-9.563V332.875
				c0-5.278,4.283-9.562,9.563-9.562h0.239h98.554c5.279,0,9.563,4.303,9.563,9.562v0.238v185.652H543.45V292.274
				c0-5.279,4.283-9.563,9.562-9.563c5.28,0,9.563,4.283,9.563,9.563v235.795v0.259c0,5.279-4.283,9.563-9.563,9.563h-308.53h-0.239
				c-5.279,0-9.563-4.283-9.563-9.563V342.437h-79.667v185.891H155.012z"/>
			<path d="M49.406,292.274c0-5.279,4.283-9.563,9.563-9.563c5.28,0,9.563,4.283,9.563,9.563v226.472H102.2
				c5.279,0,9.563,4.283,9.563,9.563s-4.283,9.562-9.563,9.562H59.228h-0.239c-5.279,0-9.563-4.282-9.563-9.562V292.274H49.406z"/>
			<g>
				<path d="M17.292,225.137c-3.088,4.263-9.064,5.2-13.328,2.131c-4.263-3.088-5.2-9.064-2.131-13.328l98.813-135.867
					c1.873-2.57,4.781-3.924,7.729-3.924v-0.04h395.25c3.387,0,6.335,1.753,8.049,4.403l98.493,135.429
					c3.088,4.263,2.132,10.24-2.132,13.328c-4.264,3.088-10.239,2.132-13.327-2.131L498.784,93.235H113.216L17.292,225.137
					L17.292,225.137z M511.674,78.512l1.514,5.16C513.188,81.779,512.63,80.006,511.674,78.512z"/>
			</g>
			<path d="M592.875,219.539c0-5.279,4.283-9.563,9.562-9.563c5.28,0,9.562,4.283,9.562,9.563c0,12.87-5.239,24.544-13.646,32.971
				c-8.427,8.427-20.102,13.646-32.971,13.646s-24.544-5.22-32.971-13.646c-8.427-8.426-13.646-20.101-13.646-32.971
				c0-5.279,4.304-9.563,9.563-9.563c5.279,0,9.562,4.283,9.562,9.563c0,7.59,3.089,14.463,8.05,19.444
				c4.979,4.96,11.854,8.048,19.442,8.048s14.463-3.088,19.443-8.048C589.787,234.002,592.875,227.129,592.875,219.539z"/>
			<path d="M133.078,142.64c-5.279,0-9.563-4.283-9.563-9.563c0-5.28,4.283-9.562,9.563-9.562h345.844
				c5.279,0,9.563,4.283,9.563,9.562c0,5.28-4.283,9.563-9.563,9.563H133.078z"/>
			<path d="M444.656,219.539c0-5.279,4.283-9.563,9.562-9.563c5.28,0,9.563,4.283,9.563,9.563c0,7.59,3.088,14.463,8.049,19.444
				l0.478,0.518c4.922,4.662,11.596,7.53,18.967,7.53c7.59,0,14.463-3.088,19.442-8.048c4.98-4.98,8.049-11.854,8.049-19.444
				c0-5.279,4.304-9.563,9.563-9.563c5.279,0,9.562,4.283,9.562,9.563c0,12.87-5.238,24.544-13.646,32.971
				c-8.427,8.427-20.103,13.646-32.971,13.646c-12.531,0-23.906-4.96-32.293-13.049l-0.658-0.598
				C449.876,244.083,444.656,232.408,444.656,219.539z"/>
			<path d="M296.438,219.539c0-5.279,4.283-9.563,9.563-9.563c5.28,0,9.563,4.283,9.563,9.563c0,7.59,3.088,14.463,8.049,19.444
				c4.979,4.96,11.854,8.048,19.442,8.048s14.463-3.088,19.443-8.048c4.961-4.98,8.049-11.854,8.049-19.444
				c0-5.279,4.283-9.563,9.563-9.563c5.279,0,9.562,4.283,9.562,9.563c0,12.87-5.239,24.544-13.646,32.971
				c-8.428,8.427-20.103,13.646-32.972,13.646s-24.544-5.22-32.971-13.646C301.659,244.084,296.438,232.408,296.438,219.539z"/>
			<path d="M444.656,219.539c0-5.279,4.283-9.563,9.562-9.563c5.28,0,9.563,4.283,9.563,9.563c0,12.87-5.239,24.544-13.646,32.971
				c-8.427,8.427-20.102,13.646-32.971,13.646s-24.544-5.22-32.971-13.646c-8.428-8.426-13.646-20.101-13.646-32.971
				c0-5.279,4.283-9.563,9.563-9.563c5.279,0,9.562,4.283,9.562,9.563c0,7.59,3.088,14.463,8.049,19.444
				c4.98,4.96,11.854,8.048,19.443,8.048s14.463-3.088,19.443-8.048C441.568,234.002,444.656,227.129,444.656,219.539z"/>
			<path d="M296.438,219.539c0-5.279,4.283-9.563,9.563-9.563c5.28,0,9.563,4.283,9.563,9.563c0,12.87-5.221,24.544-13.646,32.971
				l-0.657,0.598c-8.407,8.088-19.803,13.049-32.313,13.049c-12.87,0-24.544-5.22-32.971-13.646
				c-8.427-8.426-13.646-20.101-13.646-32.971c0-5.279,4.283-9.563,9.563-9.563c5.28,0,9.563,4.283,9.563,9.563
				c0,7.59,3.088,14.463,8.048,19.444c4.98,4.96,11.854,8.048,19.444,8.048c7.371,0,14.045-2.869,18.946-7.53l0.478-0.518
				C293.35,234.002,296.438,227.129,296.438,219.539z"/>
			<path d="M148.219,219.539c0-5.279,4.283-9.563,9.563-9.563c5.28,0,9.563,4.283,9.563,9.563c0,7.59,3.088,14.463,8.048,19.444
				c4.98,4.96,11.854,8.048,19.444,8.048s14.463-3.088,19.444-8.048c4.96-4.98,8.048-11.854,8.048-19.444
				c0-5.279,4.283-9.563,9.563-9.563c5.28,0,9.563,4.283,9.563,9.563c0,12.87-5.22,24.544-13.646,32.971
				c-8.426,8.427-20.101,13.646-32.971,13.646s-24.544-5.22-32.971-13.646C153.44,244.084,148.219,232.408,148.219,219.539z"/>
			<path d="M148.219,219.539c0-5.279,4.283-9.563,9.563-9.563c5.28,0,9.563,4.283,9.563,9.563c0,12.87-5.22,24.544-13.646,32.971
				c-8.426,8.427-20.101,13.646-32.971,13.646c-12.85,0-24.484-5.22-32.931-13.687l-0.02,0.04
				c-8.427-8.427-13.667-20.101-13.667-32.971c0-5.279,4.283-9.563,9.563-9.563c5.28,0,9.563,4.283,9.563,9.563
				c0,7.59,3.088,14.463,8.048,19.444v0.02l0.02,0.02c4.94,4.941,11.813,8.009,19.424,8.009c7.59,0,14.463-3.088,19.444-8.048
				C145.131,234.002,148.219,227.129,148.219,219.539z"/>
			<path d="M0,219.539c0-5.279,4.283-9.563,9.563-9.563s9.563,4.283,9.563,9.563c0,7.59,3.088,14.463,8.048,19.444
				c4.98,4.96,11.854,8.048,19.444,8.048c7.59,0,14.463-3.088,19.444-8.048c4.96-4.98,8.048-11.854,8.048-19.444
				c0-5.279,4.283-9.563,9.563-9.563c5.28,0,9.563,4.283,9.563,9.563c0,12.87-5.22,24.544-13.646,32.971
				c-8.426,8.427-20.081,13.646-32.971,13.646c-12.89,0-24.544-5.22-32.971-13.646C5.221,244.084,0,232.408,0,219.539z"/>
		</g>
	</g>
</g>
<g>
</g>
<g>
</g>
<g>
</g>
<g>
</g>
<g>
</g>
<g>
</g>
<g>
</g>
<g>
</g>
<g>
</g>
<g>
</g>
<g>
</g>
<g>
</g>
<g>
</g>
<g>
</g>
<g>
</g>
</svg>
